<svg width="217" height="389" viewBox="0 0 217 389" fill="none" xmlns="http://www.w3.org/2000/svg">
<path d="M179.437 7.62939e-05H50.8446C33.0896 7.62939e-05 18.6964 14.3933 18.6964 32.1482V160.741C18.6964 178.496 33.0896 192.889 50.8446 192.889H179.437C197.192 192.889 211.585 178.496 211.585 160.741V32.1482C211.585 14.3933 197.192 7.62939e-05 179.437 7.62939e-05Z" fill="#171E2D"/>
<path d="M156 75V88H168" stroke="url(#paint0_linear_103_154)" stroke-width="3.21481" stroke-linecap="round"/>
<path d="M95.8517 54.6521H108.711V85.1928H95.8517V54.6521Z" fill="url(#paint1_linear_103_154)"/>
<path d="M156.933 110.911C171.137 110.911 182.652 99.3967 182.652 85.1927C182.652 70.9888 171.137 59.4742 156.933 59.4742C142.729 59.4742 131.215 70.9888 131.215 85.1927C131.215 99.3967 142.729 110.911 156.933 110.911Z" stroke="white" stroke-width="12.8593"/>
<path d="M95.8517 85.1927H108.711L108.565 88.4002C108.152 97.4995 103.431 105.859 95.8517 110.911V85.1927Z" fill="#678FF9"/>
<path d="M95.8517 85.1927H108.711L108.618 83.2477C108.169 73.8026 103.477 65.066 95.8517 59.4742V85.1927Z" fill="#678FF9"/>
<path d="M58.8808 122.163C67.0957 141.45 95.8519 135.581 95.8519 114.617V86.8H108.711V114.712C108.711 152.883 54.0543 159.297 45.2179 122.163H58.8808Z" fill="#1250F3"/>
<path d="M76.5629 110.911C90.7668 110.911 102.281 99.3967 102.281 85.1927C102.281 70.9888 90.7668 59.4742 76.5629 59.4742C62.3589 59.4742 50.8443 70.9888 50.8443 85.1927C50.8443 99.3967 62.3589 110.911 76.5629 110.911Z" stroke="url(#paint2_linear_103_154)" stroke-width="12.8593"/>
<path d="M25.7181 212.968H35.0473V279.439H25.7181V212.968Z" fill="#171E2D"/>
<path d="M128.34 232.792H137.669V279.438H128.34V232.792Z" fill="#171E2D"/>
<path d="M180.833 235.973V226.644H206.551V235.973H180.833Z" fill="#171E2D"/>
<path d="M188.98 216.466H198.309V279.438H188.98V216.466Z" fill="#171E2D"/>
<path d="M144.666 232.792H153.996V279.438H144.666V232.792Z" fill="#171E2D"/>
<path d="M153.995 249.701L149.914 242.704C157.169 226.084 181.983 231.264 181.983 249.398L181.983 279.438L172.654 279.438L172.654 251.412C172.654 239.966 156.077 238.446 153.995 249.701Z" fill="#171E2D"/>
<path d="M98.0202 274.774C108.325 274.774 116.679 266.42 116.679 256.115C116.679 245.811 108.325 237.457 98.0202 237.457C87.7154 237.457 79.3617 245.811 79.3617 256.115C79.3617 266.42 87.7154 274.774 98.0202 274.774Z" stroke="#171E2D" stroke-width="9.32927"/>
<path d="M49.0409 253.783C59.3457 253.783 67.6994 245.429 67.6994 235.124C67.6994 224.819 59.3457 216.466 49.0409 216.466C38.7361 216.466 30.3823 224.819 30.3823 235.124C30.3823 245.429 38.7361 253.783 49.0409 253.783Z" stroke="#171E2D" stroke-width="9.32927"/>
<defs>
<linearGradient id="paint0_linear_103_154" x1="156" y1="66.3333" x2="162.296" y2="88.131" gradientUnits="userSpaceOnUse">
<stop stop-color="white"/>
<stop offset="1" stop-color="#1250F3"/>
</linearGradient>
<linearGradient id="paint1_linear_103_154" x1="84.5999" y1="54.6521" x2="106.3" y2="69.1187" gradientUnits="userSpaceOnUse">
<stop stop-color="white"/>
<stop offset="1" stop-color="#1250F3"/>
</linearGradient>
<linearGradient id="paint2_linear_103_154" x1="90.2258" y1="94.0334" x2="56.4703" y2="53.0446" gradientUnits="userSpaceOnUse">
<stop stop-color="#1250F3"/>
<stop offset="1" stop-color="white"/>
</linearGradient>
</defs>
</svg>
