<svg width="232" height="336" viewBox="0 0 232 336" fill="none" xmlns="http://www.w3.org/2000/svg">
<path d="M192.994 0H38.9199C17.6467 0 0.401367 17.2453 0.401367 38.5185V192.593C0.401367 213.866 17.6467 231.111 38.9199 231.111H192.994C214.267 231.111 231.512 213.866 231.512 192.593V38.5185C231.512 17.2453 214.267 0 192.994 0Z" fill="#171E2D"/>
<path d="M164.913 89.8613V105.437H179.29" stroke="url(#paint0_linear_397_63)" stroke-width="3.85185" stroke-linecap="round"/>
<path d="M92.8455 65.4814H108.253V102.074H92.8455V65.4814Z" fill="url(#paint1_linear_397_63)"/>
<path d="M166.031 132.889C183.049 132.889 196.846 119.093 196.846 102.075C196.846 85.056 183.049 71.2598 166.031 71.2598C149.012 71.2598 135.216 85.056 135.216 102.075C135.216 119.093 149.012 132.889 166.031 132.889Z" stroke="white" stroke-width="15.4074"/>
<path d="M48.5486 146.37C58.3912 169.479 92.8457 162.447 92.8457 137.33V104H108.253V137.444C108.253 183.178 42.7656 190.863 32.1782 146.37H48.5486Z" fill="#1250F3"/>
<path d="M69.7345 132.889C86.753 132.889 100.549 119.093 100.549 102.075C100.549 85.056 86.753 71.2598 69.7345 71.2598C52.7159 71.2598 38.9197 85.056 38.9197 102.075C38.9197 119.093 52.7159 132.889 69.7345 132.889Z" stroke="url(#paint2_linear_397_63)" stroke-width="15.4074"/>
<path d="M8.81445 255.168H19.9924V334.811H8.81445V255.168Z" fill="#171E2D"/>
<path d="M131.771 278.921H142.949V334.811H131.771V278.921Z" fill="#171E2D"/>
<path d="M194.666 282.733V271.555H225.481V282.733H194.666Z" fill="#171E2D"/>
<path d="M204.428 259.359H215.606V334.81H204.428V259.359Z" fill="#171E2D"/>
<path d="M151.333 278.921H162.511V334.811H151.333V278.921Z" fill="#171E2D"/>
<path d="M162.511 299.181L157.62 290.798V290.798C166.313 270.884 196.044 277.09 196.044 298.819L196.044 334.811L184.866 334.811L184.866 301.231C184.866 287.518 165.005 285.696 162.511 299.181V299.181Z" fill="#171E2D"/>
<path d="M95.4437 329.222C107.791 329.222 117.8 319.213 117.8 306.867C117.8 294.52 107.791 284.511 95.4437 284.511C83.0969 284.511 73.0879 294.52 73.0879 306.867C73.0879 319.213 83.0969 329.222 95.4437 329.222Z" stroke="#171E2D" stroke-width="11.1779"/>
<path d="M36.7589 304.071C49.1057 304.071 59.1148 294.062 59.1148 281.715C59.1148 269.368 49.1057 259.359 36.7589 259.359C24.4121 259.359 14.4031 269.368 14.4031 281.715C14.4031 294.062 24.4121 304.071 36.7589 304.071Z" stroke="#171E2D" stroke-width="11.1779"/>
<defs>
<linearGradient id="paint0_linear_397_63" x1="164.913" y1="79.4773" x2="172.457" y2="105.594" gradientUnits="userSpaceOnUse">
<stop stop-color="white"/>
<stop offset="1" stop-color="#1250F3"/>
</linearGradient>
<linearGradient id="paint1_linear_397_63" x1="79.364" y1="65.4814" x2="105.364" y2="82.8148" gradientUnits="userSpaceOnUse">
<stop stop-color="white"/>
<stop offset="1" stop-color="#1250F3"/>
</linearGradient>
<linearGradient id="paint2_linear_397_63" x1="86.1049" y1="112.667" x2="45.6604" y2="63.5561" gradientUnits="userSpaceOnUse">
<stop stop-color="#1250F3"/>
<stop offset="1" stop-color="white"/>
</linearGradient>
</defs>
</svg>
