<svg width="59" height="55" viewBox="0 0 59 55" fill="none" xmlns="http://www.w3.org/2000/svg">
<rect width="55" height="55" rx="27.5" fill="#CFD7E2"/>
<g filter="url(#filter0_f_94_154)">
<rect x="43" y="5" width="11" height="11" rx="5.5" fill="#1250F3"/>
</g>
<rect x="44" y="6" width="9" height="9" rx="4.5" fill="#1250F3"/>
<path d="M38.5052 21.1214C38.2892 21.2298 38.0378 21.2506 37.806 21.1794C37.5742 21.1081 37.3811 20.9506 37.2692 20.7415C36.3937 19.0657 35.0685 17.6494 33.4328 16.6412C33.3309 16.5789 33.2426 16.4978 33.1731 16.4025C33.1035 16.3071 33.054 16.1994 33.0274 16.0855C33.0007 15.9717 32.9975 15.8538 33.0179 15.7387C33.0383 15.6236 33.0819 15.5136 33.1462 15.4148C33.2105 15.3161 33.2942 15.2305 33.3926 15.1631C33.491 15.0957 33.6022 15.0477 33.7197 15.022C33.8373 14.9962 33.9589 14.9931 34.0777 15.0128C34.1965 15.0326 34.3101 15.0748 34.412 15.1371C36.3182 16.3197 37.8661 17.9716 38.8973 19.9239C39.0091 20.1331 39.0306 20.3767 38.9571 20.6013C38.8835 20.8259 38.721 21.0129 38.5052 21.1214ZM16.9169 21.2214C17.0849 21.2213 17.2497 21.1765 17.3932 21.0919C17.5368 21.0073 17.6536 20.8861 17.7309 20.7415C18.6064 19.0657 19.9316 17.6494 21.5672 16.6412C21.7731 16.5154 21.919 16.3155 21.9727 16.0855C22.0265 15.8555 21.9837 15.6143 21.8539 15.4148C21.724 15.2154 21.5177 15.074 21.2803 15.022C21.043 14.9699 20.794 15.0113 20.5881 15.1371C18.6818 16.3197 17.134 17.9716 16.1028 19.9239C16.0304 20.0593 15.9952 20.2106 16.0005 20.363C16.0059 20.5154 16.0517 20.664 16.1334 20.7943C16.2152 20.9247 16.3302 21.0324 16.4675 21.1072C16.6047 21.182 16.7594 21.2213 16.9169 21.2214ZM38.2541 32.7679C38.4166 33.0379 38.5027 33.3447 38.5038 33.6572C38.5049 33.9697 38.4209 34.277 38.2604 34.5481C38.0998 34.8192 37.8683 35.0444 37.5892 35.2011C37.3101 35.3579 36.9933 35.4405 36.6707 35.4407H31.9928C31.7823 36.4452 31.2198 37.3483 30.4007 37.997C29.5816 38.6456 28.5562 39 27.4983 39C26.4404 39 25.415 38.6456 24.5959 37.997C23.7768 37.3483 23.2144 36.4452 23.0039 35.4407H18.326C18.0036 35.4401 17.687 35.3572 17.4083 35.2003C17.1295 35.0434 16.8983 34.8182 16.738 34.5472C16.5777 34.2762 16.4939 33.969 16.4951 33.6566C16.4963 33.3443 16.5825 33.0378 16.7449 32.7679C17.7779 31.0405 18.326 28.5843 18.326 25.6649C18.326 23.3079 19.2923 21.0475 21.0125 19.3808C22.7326 17.7142 25.0657 16.7779 27.4983 16.7779C29.931 16.7779 32.264 17.7142 33.9842 19.3808C35.7043 21.0475 36.6707 23.3079 36.6707 25.6649C36.6707 28.5832 37.2187 31.0394 38.2541 32.7679ZM30.0918 35.4407H24.9048C25.0949 35.96 25.4462 36.4094 25.9107 36.7273C26.3751 37.0451 26.9297 37.2158 27.4983 37.2158C28.0669 37.2158 28.6216 37.0451 29.086 36.7273C29.5504 36.4094 29.9018 35.96 30.0918 35.4407ZM36.6707 33.6633C35.4508 31.6337 34.8362 28.9432 34.8362 25.6649C34.8362 23.7793 34.0631 21.971 32.687 20.6377C31.3109 19.3043 29.4444 18.5553 27.4983 18.5553C25.5522 18.5553 23.6858 19.3043 22.3096 20.6377C20.9335 21.971 20.1604 23.7793 20.1604 25.6649C20.1604 28.9443 19.5436 31.6348 18.326 33.6633H36.6707Z" fill="#7E8FA4" stroke="#7E8FA4" stroke-width="0.5"/>
<defs>
<filter id="filter0_f_94_154" x="38" y="0" width="21" height="21" filterUnits="userSpaceOnUse" color-interpolation-filters="sRGB">
<feFlood flood-opacity="0" result="BackgroundImageFix"/>
<feBlend mode="normal" in="SourceGraphic" in2="BackgroundImageFix" result="shape"/>
<feGaussianBlur stdDeviation="2.5" result="effect1_foregroundBlur_94_154"/>
</filter>
</defs>
</svg>
