<svg width="18" height="30" viewBox="0 0 18 30" fill="none" xmlns="http://www.w3.org/2000/svg">
<path d="M2.0439 28.3404L2.0439 28.3404C2.21157 28.5081 2.41063 28.6411 2.6297 28.7319C2.84877 28.8226 3.08358 28.8693 3.3207 28.8693C3.55783 28.8693 3.79263 28.8226 4.0117 28.7319C4.23077 28.6411 4.42983 28.5081 4.5975 28.3404L4.17206 27.915L4.5975 28.3404L16.6306 16.3073C16.7984 16.1397 16.9316 15.9406 17.0224 15.7215L16.4666 15.4911L17.0224 15.7215C17.1132 15.5024 17.16 15.2675 17.16 15.0303C17.16 14.7931 17.1132 14.5582 17.0224 14.3391L16.4666 14.5695L17.0224 14.3391C16.9316 14.12 16.7984 13.9209 16.6306 13.7533L4.5975 1.72017C4.25887 1.38154 3.79959 1.1913 3.3207 1.1913C2.84181 1.1913 2.38253 1.38154 2.0439 1.72017C1.70527 2.0588 1.51503 2.51808 1.51503 2.99697C1.51503 3.47586 1.70527 3.93514 2.0439 4.27377L2.04393 4.2738L12.8019 15.0303L2.04393 25.7868L2.0439 25.7868C1.87623 25.9545 1.74322 26.1536 1.65248 26.3726C1.56174 26.5917 1.51503 26.8265 1.51503 27.0636C1.51503 27.3008 1.56174 27.5356 1.65248 27.7546C1.74322 27.9737 1.87623 28.1728 2.0439 28.3404Z" fill="#171E2D" stroke="#171E2D" stroke-width="1.20333"/>
</svg>
